<?xml version="1.0" encoding="UTF-8"?>
<svg id="Capa_2" data-name="Capa 2" xmlns="http://www.w3.org/2000/svg" viewBox="0 0 447.12 103.4">
  <defs>
    <style>
      .cls-1 {
        fill: #fff;
      }
    </style>
  </defs>
  <g id="Layer_1" data-name="Layer 1">
    <g>
      <g>
        <path class="cls-1" d="M126.88,77.39c0-15.52,11.64-25.69,25.59-25.69s25.69,10.17,25.69,25.69-11.74,25.79-25.69,25.79-25.59-10.28-25.59-25.79ZM169.03,77.39c0-10.07-7.55-17.09-16.57-17.09s-16.36,7.03-16.36,17.09,7.44,17.2,16.36,17.2,16.57-7.03,16.57-17.2Z"/>
        <path class="cls-1" d="M186.23,101.93V26.32h9.12v75.6h-9.12Z"/>
        <path class="cls-1" d="M251.48,81.38h-39.85c1.36,8.7,7.65,13.21,16.04,13.21,5.98,0,11.43-2.73,14.26-7.65l7.86,3.15c-4.19,8.49-13,13.11-22.44,13.11-13.95,0-25.17-10.38-25.17-25.9s11.22-25.59,25.17-25.59,24.33,10.07,24.33,25.59c0,1.36-.11,2.73-.21,4.09ZM242.57,73.51c-1.15-8.39-7.13-13.21-15.2-13.21s-14.16,4.4-15.62,13.21h30.83Z"/>
        <path class="cls-1" d="M257.33,77.39c0-15.52,11.64-25.69,25.59-25.69s25.69,10.17,25.69,25.69-11.74,25.79-25.69,25.79-25.59-10.28-25.59-25.79ZM299.48,77.39c0-10.07-7.55-17.09-16.57-17.09s-16.36,7.03-16.36,17.09,7.44,17.2,16.36,17.2,16.57-7.03,16.57-17.2Z"/>
        <path class="cls-1" d="M316.68,101.93V26.32h9.12v75.6h-9.12Z"/>
        <path class="cls-1" d="M375.61,52.96h9.12v48.97h-9.12v-8.7c-3.25,5.87-10.07,9.96-17.93,9.96-12.79,0-24.01-10.8-24.01-25.79s10.59-25.69,24.43-25.69c7.34,0,14.26,3.15,17.51,8.91v-7.65ZM375.61,77.39c0-10.07-8.49-17.09-16.67-17.09-8.91,0-16.04,7.87-16.04,17.09s7.13,17.2,16.15,17.2,16.57-7.23,16.57-17.2Z"/>
        <path class="cls-1" d="M447.12,77.39c0,15.41-11.11,25.79-24.54,25.79-7.03,0-14.16-3.36-17.41-8.91v7.65h-9.12V26.32h9.12v34.29c3.25-5.77,10.17-8.91,17.51-8.91,13.42,0,24.43,10.17,24.43,25.69ZM437.9,77.29c0-9.86-7.13-16.99-16.15-16.99-7.97,0-16.57,6.4-16.57,16.99s7.87,17.3,16.57,17.3,16.15-7.55,16.15-17.3Z"/>
      </g>
      <g>
        <g>
          <path class="cls-1" d="M64.43,26.61l-26.72,22.77v26.19l26.09-20.16c2.2-1.7,3.48-4.32,3.48-7.09v-20.38c0-1.48-1.73-2.28-2.86-1.32Z"/>
          <path class="cls-1" d="M11,.42l26.72,22.77v26.19S11.63,29.21,11.63,29.21c-2.2-1.7-3.48-4.32-3.48-7.09V1.74c0-1.48,1.73-2.28,2.86-1.32Z"/>
        </g>
        <path class="cls-1" d="M75.6,103.4H0v-9.12h75.6v9.12Z"/>
      </g>
    </g>
  </g>
</svg>